<svg width="20" height="20" viewBox="0 0 20 20" fill="none" xmlns="http://www.w3.org/2000/svg">
<path d="M13.3334 6.6665C14.6595 6.6665 15.9312 7.19329 16.8689 8.13097C17.8066 9.06865 18.3334 10.3404 18.3334 11.6665V17.4998H15V11.6665C15 11.2245 14.8244 10.8006 14.5119 10.488C14.1993 10.1754 13.7754 9.99984 13.3334 9.99984C12.8913 9.99984 12.4674 10.1754 12.1549 10.488C11.8423 10.8006 11.6667 11.2245 11.6667 11.6665V17.4998H8.33337V11.6665C8.33337 10.3404 8.86016 9.06865 9.79784 8.13097C10.7355 7.19329 12.0073 6.6665 13.3334 6.6665Z" fill="black" stroke="black" stroke-linecap="round" stroke-linejoin="round"/>
<path d="M4.99996 7.5H1.66663V17.5H4.99996V7.5Z" fill="black" stroke="black" stroke-linecap="round" stroke-linejoin="round"/>
<path d="M3.33329 4.99984C4.25377 4.99984 4.99996 4.25365 4.99996 3.33317C4.99996 2.4127 4.25377 1.6665 3.33329 1.6665C2.41282 1.6665 1.66663 2.4127 1.66663 3.33317C1.66663 4.25365 2.41282 4.99984 3.33329 4.99984Z" fill="black" stroke="black" stroke-linecap="round" stroke-linejoin="round"/>
</svg>
