<svg width="21" height="21" viewBox="0 0 21 21" fill="none" xmlns="http://www.w3.org/2000/svg">
<g clip-path="url(#clip0_2_63)">
<path d="M19.458 3.24248C18.66 3.80538 17.7765 4.2359 16.8414 4.51748C16.3395 3.94041 15.6725 3.53139 14.9306 3.34575C14.1886 3.16011 13.4076 3.20681 12.6931 3.47952C11.9786 3.75224 11.3651 4.23781 10.9355 4.87058C10.506 5.50334 10.2811 6.25276 10.2914 7.01748V7.85081C8.82689 7.88879 7.37576 7.56399 6.0672 6.90535C4.75865 6.24671 3.63329 5.27468 2.79136 4.07581C2.79136 4.07581 -0.541972 11.5758 6.95803 14.9091C5.2418 16.0741 3.19733 16.6583 1.12469 16.5758C8.62469 20.7425 17.7914 16.5758 17.7914 6.99248C17.7906 6.76036 17.7683 6.52881 17.7247 6.30081C18.5752 5.46206 19.1754 4.40307 19.458 3.24248Z" fill="black" stroke="black" stroke-linecap="round" stroke-linejoin="round"/>
</g>
<defs>
<clipPath id="clip0_2_63">
<rect width="20" height="20" fill="white" transform="translate(0.291382 0.742493)"/>
</clipPath>
</defs>
</svg>
